<?xml version="1.0" standalone="no"?>
<!DOCTYPE svg PUBLIC "-//W3C//DTD SVG 20010904//EN"
 "http://www.w3.org/TR/2001/REC-SVG-20010904/DTD/svg10.dtd">
<svg version="1.0" xmlns="http://www.w3.org/2000/svg"
 width="147.000000pt" height="147.000000pt" viewBox="0 0 147.000000 147.000000"
 preserveAspectRatio="xMidYMid meet">
<metadata>
Created by potrace 1.14, written by Peter Selinger 2001-2017
</metadata>
<g transform="translate(0.000000,147.000000) scale(0.100000,-0.100000)"
fill="#000000" stroke="none">
<path d="M485 1343 c13 -27 15 -94 4 -115 -15 -28 -45 -58 -59 -58 -5 0 -10
-7 -10 -15 0 -11 5 -12 24 -5 24 9 47 7 85 -5 9 -3 28 -23 42 -45 23 -38 39
-50 39 -31 0 6 -4 13 -10 16 -12 8 -13 56 -1 87 11 28 49 70 59 65 4 -3 16 5
27 16 l20 20 -20 -7 c-11 -5 -41 -10 -67 -12 -40 -3 -51 1 -75 24 -16 15 -36
38 -46 52 -10 14 -15 19 -12 13z"/>
<path d="M887 1194 c-2 -2 -36 -6 -77 -10 -116 -10 -121 -20 -8 -19 57 0 127
-5 157 -12 30 -7 58 -10 62 -7 4 2 10 0 14 -6 3 -5 16 -10 28 -10 29 0 113
-50 154 -90 164 -162 1 -462 -386 -709 -90 -57 -343 -182 -376 -186 -5 0 -20
-6 -32 -13 -13 -7 -23 -10 -23 -6 0 3 -6 2 -12 -3 -7 -6 -34 -16 -60 -24 -68
-19 -59 -30 10 -12 31 8 62 16 67 17 6 2 30 9 55 16 25 7 50 15 55 16 33 9
188 68 230 88 28 13 52 23 55 23 8 -1 138 72 215 121 199 127 352 282 410 418
10 21 20 46 24 54 12 26 4 133 -13 171 -32 76 -157 153 -281 175 -43 7 -262
14 -268 8z"/>
<path d="M903 903 c-92 -50 -208 -106 -218 -106 -5 0 -37 3 -70 7 -33 4 -80 9
-105 12 -25 2 -70 7 -100 10 -30 3 -75 7 -100 9 -25 1 -83 6 -130 11 -47 4
-95 7 -108 7 -25 -1 -54 -21 -47 -33 4 -6 89 -34 107 -35 3 0 10 -3 14 -7 4
-5 15 -8 24 -8 29 0 203 -59 233 -79 l29 -19 -60 -29 -59 -30 -59 34 c-86 48
-119 37 -87 -30 l14 -28 -58 7 c-32 3 -61 8 -64 10 -10 6 -39 -6 -39 -16 0 -4
29 -22 65 -41 36 -18 65 -39 65 -46 0 -12 13 -17 33 -14 4 0 26 -13 49 -30 38
-27 44 -28 54 -14 7 9 10 24 7 35 -4 15 3 21 39 30 23 6 52 14 63 17 11 4 25
8 32 9 7 1 41 12 77 24 l65 21 40 -20 c34 -18 49 -38 57 -76 1 -5 7 -29 13
-53 11 -38 15 -42 34 -36 22 7 36 21 38 39 0 6 2 19 4 30 2 11 11 65 21 120
l17 100 100 50 c58 29 120 69 149 96 44 41 49 49 39 68 -8 14 -22 21 -44 22
-18 0 -44 2 -59 4 -17 2 -47 -7 -75 -22z"/>
</g>
</svg>
